<mxfile host="app.diagrams.net" agent="Mozilla/5.0 (Macintosh; Intel Mac OS X 10_15_7) AppleWebKit/605.1.15 (KHTML, like Gecko) Version/17.5 Safari/605.1.15" version="24.7.6">
  <diagram name="Page-1" id="13e1069c-82ec-6db2-03f1-153e76fe0fe0">
    <mxGraphModel dx="2534" dy="1677" grid="1" gridSize="10" guides="1" tooltips="1" connect="1" arrows="1" fold="1" page="1" pageScale="1" pageWidth="1100" pageHeight="850" background="none" math="0" shadow="0">
      <root>
        <mxCell id="0" />
        <mxCell id="1" parent="0" />
        <mxCell id="nYwSnCyiEzumxo3k523o-27" value="" style="edgeStyle=orthogonalEdgeStyle;rounded=0;orthogonalLoop=1;jettySize=auto;html=1;" edge="1" parent="1" source="nYwSnCyiEzumxo3k523o-5" target="nYwSnCyiEzumxo3k523o-26">
          <mxGeometry relative="1" as="geometry" />
        </mxCell>
        <object label="ADMIN&lt;div&gt;&lt;br&gt;&lt;/div&gt;" ADMIN="" id="nYwSnCyiEzumxo3k523o-5">
          <mxCell style="shape=umlActor;verticalLabelPosition=bottom;verticalAlign=top;html=1;" vertex="1" parent="1">
            <mxGeometry x="130" y="750" width="30" height="60" as="geometry" />
          </mxCell>
        </object>
        <mxCell id="nYwSnCyiEzumxo3k523o-14" value="CADASTRAR FUNCIONÁRIO" style="ellipse;whiteSpace=wrap;html=1;" vertex="1" parent="1">
          <mxGeometry x="460" y="440" width="140" height="70" as="geometry" />
        </mxCell>
        <mxCell id="nYwSnCyiEzumxo3k523o-15" value="EXCLUIR FUNCIONÁRIO" style="ellipse;whiteSpace=wrap;html=1;" vertex="1" parent="1">
          <mxGeometry x="460" y="560" width="140" height="70" as="geometry" />
        </mxCell>
        <mxCell id="nYwSnCyiEzumxo3k523o-16" value="ATUALIZAR FUNCIONÁRIO" style="ellipse;whiteSpace=wrap;html=1;" vertex="1" parent="1">
          <mxGeometry x="460" y="660" width="140" height="70" as="geometry" />
        </mxCell>
        <mxCell id="nYwSnCyiEzumxo3k523o-17" value="CONSULTAR FUNCIONÁRIO" style="ellipse;whiteSpace=wrap;html=1;" vertex="1" parent="1">
          <mxGeometry x="460" y="770" width="140" height="70" as="geometry" />
        </mxCell>
        <object label="&lt;div&gt;FUNCIONARIO&lt;/div&gt;" ADMIN="" id="nYwSnCyiEzumxo3k523o-26">
          <mxCell style="shape=umlActor;verticalLabelPosition=bottom;verticalAlign=top;html=1;" vertex="1" parent="1">
            <mxGeometry x="130" y="-40" width="30" height="60" as="geometry" />
          </mxCell>
        </object>
        <mxCell id="nYwSnCyiEzumxo3k523o-35" value="" style="endArrow=none;html=1;rounded=0;exitX=1;exitY=0.3333333333333333;exitDx=0;exitDy=0;exitPerimeter=0;entryX=0;entryY=0.5;entryDx=0;entryDy=0;" edge="1" parent="1" source="nYwSnCyiEzumxo3k523o-5" target="nYwSnCyiEzumxo3k523o-14">
          <mxGeometry relative="1" as="geometry">
            <mxPoint x="410" y="270" as="sourcePoint" />
            <mxPoint x="570" y="270" as="targetPoint" />
          </mxGeometry>
        </mxCell>
        <mxCell id="nYwSnCyiEzumxo3k523o-36" value="" style="endArrow=none;html=1;rounded=0;exitX=1;exitY=0.3333333333333333;exitDx=0;exitDy=0;exitPerimeter=0;entryX=0;entryY=0.5;entryDx=0;entryDy=0;" edge="1" parent="1" source="nYwSnCyiEzumxo3k523o-5" target="nYwSnCyiEzumxo3k523o-15">
          <mxGeometry relative="1" as="geometry">
            <mxPoint x="170" y="360" as="sourcePoint" />
            <mxPoint x="500" y="185" as="targetPoint" />
          </mxGeometry>
        </mxCell>
        <mxCell id="nYwSnCyiEzumxo3k523o-37" value="" style="endArrow=none;html=1;rounded=0;exitX=1;exitY=0.3333333333333333;exitDx=0;exitDy=0;exitPerimeter=0;" edge="1" parent="1" source="nYwSnCyiEzumxo3k523o-5" target="nYwSnCyiEzumxo3k523o-16">
          <mxGeometry relative="1" as="geometry">
            <mxPoint x="180" y="370" as="sourcePoint" />
            <mxPoint x="510" y="195" as="targetPoint" />
          </mxGeometry>
        </mxCell>
        <mxCell id="nYwSnCyiEzumxo3k523o-38" value="" style="endArrow=none;html=1;rounded=0;exitX=1;exitY=0.3333333333333333;exitDx=0;exitDy=0;exitPerimeter=0;entryX=0;entryY=0.5;entryDx=0;entryDy=0;" edge="1" parent="1" source="nYwSnCyiEzumxo3k523o-5" target="nYwSnCyiEzumxo3k523o-17">
          <mxGeometry relative="1" as="geometry">
            <mxPoint x="190" y="380" as="sourcePoint" />
            <mxPoint x="520" y="205" as="targetPoint" />
          </mxGeometry>
        </mxCell>
        <mxCell id="nYwSnCyiEzumxo3k523o-43" value="CADASTRAR CLIENTE" style="ellipse;whiteSpace=wrap;html=1;" vertex="1" parent="1">
          <mxGeometry x="470" y="-30" width="140" height="70" as="geometry" />
        </mxCell>
        <mxCell id="nYwSnCyiEzumxo3k523o-44" value="EXCLUIR CLIENTE" style="ellipse;whiteSpace=wrap;html=1;" vertex="1" parent="1">
          <mxGeometry x="470" y="90" width="140" height="70" as="geometry" />
        </mxCell>
        <mxCell id="nYwSnCyiEzumxo3k523o-45" value="ATUALIZAR CLIENTE" style="ellipse;whiteSpace=wrap;html=1;" vertex="1" parent="1">
          <mxGeometry x="470" y="190" width="140" height="70" as="geometry" />
        </mxCell>
        <mxCell id="nYwSnCyiEzumxo3k523o-46" value="CONSULTAR CLIENTE" style="ellipse;whiteSpace=wrap;html=1;" vertex="1" parent="1">
          <mxGeometry x="470" y="300" width="140" height="70" as="geometry" />
        </mxCell>
        <mxCell id="nYwSnCyiEzumxo3k523o-47" value="" style="endArrow=none;html=1;rounded=0;exitX=1;exitY=0.3333333333333333;exitDx=0;exitDy=0;exitPerimeter=0;entryX=0;entryY=0.5;entryDx=0;entryDy=0;" edge="1" parent="1" target="nYwSnCyiEzumxo3k523o-43">
          <mxGeometry relative="1" as="geometry">
            <mxPoint x="160" y="-20" as="sourcePoint" />
            <mxPoint x="570" y="-520" as="targetPoint" />
          </mxGeometry>
        </mxCell>
        <mxCell id="nYwSnCyiEzumxo3k523o-48" value="" style="endArrow=none;html=1;rounded=0;exitX=1;exitY=0.3333333333333333;exitDx=0;exitDy=0;exitPerimeter=0;entryX=0;entryY=0.5;entryDx=0;entryDy=0;" edge="1" parent="1" target="nYwSnCyiEzumxo3k523o-44">
          <mxGeometry relative="1" as="geometry">
            <mxPoint x="160" y="-20" as="sourcePoint" />
            <mxPoint x="500" y="-605" as="targetPoint" />
          </mxGeometry>
        </mxCell>
        <mxCell id="nYwSnCyiEzumxo3k523o-49" value="" style="endArrow=none;html=1;rounded=0;exitX=1;exitY=0.3333333333333333;exitDx=0;exitDy=0;exitPerimeter=0;" edge="1" parent="1" target="nYwSnCyiEzumxo3k523o-45">
          <mxGeometry relative="1" as="geometry">
            <mxPoint x="160" y="-20" as="sourcePoint" />
            <mxPoint x="510" y="-595" as="targetPoint" />
          </mxGeometry>
        </mxCell>
        <mxCell id="nYwSnCyiEzumxo3k523o-50" value="" style="endArrow=none;html=1;rounded=0;exitX=1;exitY=0.3333333333333333;exitDx=0;exitDy=0;exitPerimeter=0;entryX=0;entryY=0.5;entryDx=0;entryDy=0;" edge="1" parent="1" target="nYwSnCyiEzumxo3k523o-46">
          <mxGeometry relative="1" as="geometry">
            <mxPoint x="160" y="-20" as="sourcePoint" />
            <mxPoint x="520" y="-585" as="targetPoint" />
          </mxGeometry>
        </mxCell>
        <mxCell id="nYwSnCyiEzumxo3k523o-51" value="CADASTRAR SERVIÇO" style="ellipse;whiteSpace=wrap;html=1;" vertex="1" parent="1">
          <mxGeometry x="470" y="-470" width="140" height="70" as="geometry" />
        </mxCell>
        <mxCell id="nYwSnCyiEzumxo3k523o-52" value="EXCLUIR SERVIÇO" style="ellipse;whiteSpace=wrap;html=1;" vertex="1" parent="1">
          <mxGeometry x="470" y="-350" width="140" height="70" as="geometry" />
        </mxCell>
        <mxCell id="nYwSnCyiEzumxo3k523o-53" value="ATUALIZAR SERVIÇO" style="ellipse;whiteSpace=wrap;html=1;" vertex="1" parent="1">
          <mxGeometry x="470" y="-250" width="140" height="70" as="geometry" />
        </mxCell>
        <mxCell id="nYwSnCyiEzumxo3k523o-54" value="CONSULTAR SERVIÇO" style="ellipse;whiteSpace=wrap;html=1;" vertex="1" parent="1">
          <mxGeometry x="470" y="-140" width="140" height="70" as="geometry" />
        </mxCell>
        <mxCell id="nYwSnCyiEzumxo3k523o-55" value="" style="endArrow=none;html=1;rounded=0;entryX=0;entryY=0.5;entryDx=0;entryDy=0;" edge="1" parent="1" target="nYwSnCyiEzumxo3k523o-51">
          <mxGeometry relative="1" as="geometry">
            <mxPoint x="160" y="-20" as="sourcePoint" />
            <mxPoint x="570" y="-960" as="targetPoint" />
          </mxGeometry>
        </mxCell>
        <mxCell id="nYwSnCyiEzumxo3k523o-56" value="" style="endArrow=none;html=1;rounded=0;entryX=0;entryY=0.5;entryDx=0;entryDy=0;" edge="1" parent="1" target="nYwSnCyiEzumxo3k523o-52">
          <mxGeometry relative="1" as="geometry">
            <mxPoint x="160" y="-20" as="sourcePoint" />
            <mxPoint x="500" y="-1045" as="targetPoint" />
          </mxGeometry>
        </mxCell>
        <mxCell id="nYwSnCyiEzumxo3k523o-57" value="" style="endArrow=none;html=1;rounded=0;" edge="1" parent="1" target="nYwSnCyiEzumxo3k523o-53">
          <mxGeometry relative="1" as="geometry">
            <mxPoint x="160" y="-20" as="sourcePoint" />
            <mxPoint x="510" y="-1035" as="targetPoint" />
          </mxGeometry>
        </mxCell>
        <mxCell id="nYwSnCyiEzumxo3k523o-58" value="" style="endArrow=none;html=1;rounded=0;entryX=0;entryY=0.5;entryDx=0;entryDy=0;" edge="1" parent="1" target="nYwSnCyiEzumxo3k523o-54" source="nYwSnCyiEzumxo3k523o-26">
          <mxGeometry relative="1" as="geometry">
            <mxPoint x="160" y="-460" as="sourcePoint" />
            <mxPoint x="520" y="-1025" as="targetPoint" />
          </mxGeometry>
        </mxCell>
        <mxCell id="nYwSnCyiEzumxo3k523o-71" value="CADASTRAR HORÁRIO" style="ellipse;whiteSpace=wrap;html=1;" vertex="1" parent="1">
          <mxGeometry x="20" y="-820" width="140" height="70" as="geometry" />
        </mxCell>
        <mxCell id="nYwSnCyiEzumxo3k523o-72" value="EXCLUIR HORÁRIO" style="ellipse;whiteSpace=wrap;html=1;" vertex="1" parent="1">
          <mxGeometry x="170" y="-740" width="140" height="70" as="geometry" />
        </mxCell>
        <mxCell id="nYwSnCyiEzumxo3k523o-73" value="ATUALIZAR HORÁRIO" style="ellipse;whiteSpace=wrap;html=1;" vertex="1" parent="1">
          <mxGeometry x="260" y="-650" width="140" height="70" as="geometry" />
        </mxCell>
        <mxCell id="nYwSnCyiEzumxo3k523o-74" value="CONSULTAR HORÁRIO" style="ellipse;whiteSpace=wrap;html=1;" vertex="1" parent="1">
          <mxGeometry x="490" y="-660" width="140" height="70" as="geometry" />
        </mxCell>
        <mxCell id="nYwSnCyiEzumxo3k523o-75" value="" style="endArrow=none;html=1;rounded=0;entryX=0;entryY=0.5;entryDx=0;entryDy=0;" edge="1" parent="1" target="nYwSnCyiEzumxo3k523o-71">
          <mxGeometry relative="1" as="geometry">
            <mxPoint x="160" y="-20" as="sourcePoint" />
            <mxPoint x="330" y="-1340" as="targetPoint" />
          </mxGeometry>
        </mxCell>
        <mxCell id="nYwSnCyiEzumxo3k523o-76" value="" style="endArrow=none;html=1;rounded=0;entryX=0;entryY=0.5;entryDx=0;entryDy=0;" edge="1" parent="1" target="nYwSnCyiEzumxo3k523o-72">
          <mxGeometry relative="1" as="geometry">
            <mxPoint x="160" y="-20" as="sourcePoint" />
            <mxPoint x="260" y="-1425" as="targetPoint" />
          </mxGeometry>
        </mxCell>
        <mxCell id="nYwSnCyiEzumxo3k523o-77" value="" style="endArrow=none;html=1;rounded=0;" edge="1" parent="1" target="nYwSnCyiEzumxo3k523o-73">
          <mxGeometry relative="1" as="geometry">
            <mxPoint x="160" y="-20" as="sourcePoint" />
            <mxPoint x="270" y="-1415" as="targetPoint" />
          </mxGeometry>
        </mxCell>
        <mxCell id="nYwSnCyiEzumxo3k523o-78" value="" style="endArrow=none;html=1;rounded=0;entryX=0;entryY=0.5;entryDx=0;entryDy=0;" edge="1" parent="1" target="nYwSnCyiEzumxo3k523o-74">
          <mxGeometry relative="1" as="geometry">
            <mxPoint x="160" y="-20" as="sourcePoint" />
            <mxPoint x="280" y="-1405" as="targetPoint" />
          </mxGeometry>
        </mxCell>
        <mxCell id="nYwSnCyiEzumxo3k523o-79" value="CADASTRAR AGENDAMENTO" style="ellipse;whiteSpace=wrap;html=1;" vertex="1" parent="1">
          <mxGeometry x="-210" y="-450" width="140" height="70" as="geometry" />
        </mxCell>
        <mxCell id="nYwSnCyiEzumxo3k523o-80" value="EXCLUIR AGENDAMENTO" style="ellipse;whiteSpace=wrap;html=1;" vertex="1" parent="1">
          <mxGeometry x="-210" y="-330" width="140" height="70" as="geometry" />
        </mxCell>
        <mxCell id="nYwSnCyiEzumxo3k523o-81" value="ATUALIZAR AGENDAMENTO" style="ellipse;whiteSpace=wrap;html=1;" vertex="1" parent="1">
          <mxGeometry x="-210" y="-230" width="140" height="70" as="geometry" />
        </mxCell>
        <mxCell id="nYwSnCyiEzumxo3k523o-82" value="CONSULTAR AGENDAMENTO" style="ellipse;whiteSpace=wrap;html=1;" vertex="1" parent="1">
          <mxGeometry x="-210" y="-120" width="140" height="70" as="geometry" />
        </mxCell>
        <mxCell id="nYwSnCyiEzumxo3k523o-83" value="" style="endArrow=none;html=1;rounded=0;entryX=1;entryY=0.5;entryDx=0;entryDy=0;" edge="1" parent="1" target="nYwSnCyiEzumxo3k523o-79">
          <mxGeometry relative="1" as="geometry">
            <mxPoint x="130" y="-20" as="sourcePoint" />
            <mxPoint x="-100" y="-620" as="targetPoint" />
          </mxGeometry>
        </mxCell>
        <mxCell id="nYwSnCyiEzumxo3k523o-84" value="" style="endArrow=none;html=1;rounded=0;entryX=1;entryY=0.5;entryDx=0;entryDy=0;" edge="1" parent="1" target="nYwSnCyiEzumxo3k523o-80">
          <mxGeometry relative="1" as="geometry">
            <mxPoint x="130" y="-20" as="sourcePoint" />
            <mxPoint x="-170" y="-705" as="targetPoint" />
          </mxGeometry>
        </mxCell>
        <mxCell id="nYwSnCyiEzumxo3k523o-85" value="" style="endArrow=none;html=1;rounded=0;" edge="1" parent="1" target="nYwSnCyiEzumxo3k523o-81">
          <mxGeometry relative="1" as="geometry">
            <mxPoint x="130" y="-20" as="sourcePoint" />
            <mxPoint x="-160" y="-695" as="targetPoint" />
          </mxGeometry>
        </mxCell>
        <mxCell id="nYwSnCyiEzumxo3k523o-86" value="" style="endArrow=none;html=1;rounded=0;entryX=1;entryY=0.5;entryDx=0;entryDy=0;exitX=0;exitY=0.3333333333333333;exitDx=0;exitDy=0;exitPerimeter=0;" edge="1" parent="1" target="nYwSnCyiEzumxo3k523o-82" source="nYwSnCyiEzumxo3k523o-26">
          <mxGeometry relative="1" as="geometry">
            <mxPoint x="-500" y="-110" as="sourcePoint" />
            <mxPoint x="-150" y="-685" as="targetPoint" />
          </mxGeometry>
        </mxCell>
        <mxCell id="nYwSnCyiEzumxo3k523o-89" value="&amp;lt;&amp;lt; include &amp;gt;&amp;gt;" style="html=1;verticalAlign=bottom;endArrow=open;dashed=1;endSize=8;curved=0;rounded=0;exitX=0;exitY=0.5;exitDx=0;exitDy=0;" edge="1" parent="1" source="nYwSnCyiEzumxo3k523o-79">
          <mxGeometry relative="1" as="geometry">
            <mxPoint x="-330" y="-330" as="sourcePoint" />
            <mxPoint x="-330" y="-420" as="targetPoint" />
          </mxGeometry>
        </mxCell>
        <mxCell id="nYwSnCyiEzumxo3k523o-90" value="CONSULTAR HORÁRIO" style="ellipse;whiteSpace=wrap;html=1;" vertex="1" parent="1">
          <mxGeometry x="-470" y="-460" width="140" height="70" as="geometry" />
        </mxCell>
      </root>
    </mxGraphModel>
  </diagram>
</mxfile>
